<svg viewBox="0 0 330 200" xmlns="http://www.w3.org/2000/svg"><g><g><g><g><g><line x1="42.390625" y1="177" x2="37.390625" y2="177" style="visibility: inherit;" fill="rgb(0, 0, 0)" stroke="rgb(204, 204, 204)" stroke-width="1px"></line><line x1="42.390625" y1="163.3846153846154" x2="37.390625" y2="163.3846153846154" style="visibility: inherit;" fill="rgb(0, 0, 0)" stroke="rgb(204, 204, 204)" stroke-width="1px"></line><line x1="42.390625" y1="149.76923076923077" x2="37.390625" y2="149.76923076923077" style="visibility: inherit;" fill="rgb(0, 0, 0)" stroke="rgb(204, 204, 204)" stroke-width="1px"></line><line x1="42.390625" y1="136.15384615384616" x2="37.390625" y2="136.15384615384616" style="visibility: inherit;" fill="rgb(0, 0, 0)" stroke="rgb(204, 204, 204)" stroke-width="1px"></line><line x1="42.390625" y1="122.53846153846153" x2="37.390625" y2="122.53846153846153" style="visibility: inherit;" fill="rgb(0, 0, 0)" stroke="rgb(204, 204, 204)" stroke-width="1px"></line><line x1="42.390625" y1="108.92307692307692" x2="37.390625" y2="108.92307692307692" style="visibility: inherit;" fill="rgb(0, 0, 0)" stroke="rgb(204, 204, 204)" stroke-width="1px"></line><line x1="42.390625" y1="95.3076923076923" x2="37.390625" y2="95.3076923076923" style="visibility: inherit;" fill="rgb(0, 0, 0)" stroke="rgb(204, 204, 204)" stroke-width="1px"></line><line x1="42.390625" y1="81.6923076923077" x2="37.390625" y2="81.6923076923077" style="visibility: inherit;" fill="rgb(0, 0, 0)" stroke="rgb(204, 204, 204)" stroke-width="1px"></line><line x1="42.390625" y1="68.07692307692307" x2="37.390625" y2="68.07692307692307" style="visibility: inherit;" fill="rgb(0, 0, 0)" stroke="rgb(204, 204, 204)" stroke-width="1px"></line><line x1="42.390625" y1="54.46153846153847" x2="37.390625" y2="54.46153846153847" style="visibility: inherit;" fill="rgb(0, 0, 0)" stroke="rgb(204, 204, 204)" stroke-width="1px"></line><line x1="42.390625" y1="40.84615384615384" x2="37.390625" y2="40.84615384615384" style="visibility: inherit;" fill="rgb(0, 0, 0)" stroke="rgb(204, 204, 204)" stroke-width="1px"></line><line x1="42.390625" y1="27.230769230769226" x2="37.390625" y2="27.230769230769226" style="visibility: inherit;" fill="rgb(0, 0, 0)" stroke="rgb(204, 204, 204)" stroke-width="1px"></line><line x1="42.390625" y1="13.615384615384613" x2="37.390625" y2="13.615384615384613" style="visibility: inherit;" fill="rgb(0, 0, 0)" stroke="rgb(204, 204, 204)" stroke-width="1px"></line><line x1="42.390625" y1="0" x2="37.390625" y2="0" style="visibility: inherit;" fill="rgb(0, 0, 0)" stroke="rgb(204, 204, 204)" stroke-width="1px"></line></g><g transform="translate(32.390625, 0)"><text x="0" y="177" dx="0em" dy="0.3em" style="text-anchor: end; visibility: hidden; font-family: &quot;Helvetica Neue&quot;, sans-serif; font-size: 12px; font-weight: 200;" fill="rgb(50, 49, 63)" stroke="none" stroke-width="1px">-10</text><text x="0" y="163.3846153846154" dx="0em" dy="0.3em" style="text-anchor: end; visibility: inherit; font-family: &quot;Helvetica Neue&quot;, sans-serif; font-size: 12px; font-weight: 200;" fill="rgb(50, 49, 63)" stroke="none" stroke-width="1px">0</text><text x="0" y="149.76923076923077" dx="0em" dy="0.3em" style="text-anchor: end; visibility: hidden; font-family: &quot;Helvetica Neue&quot;, sans-serif; font-size: 12px; font-weight: 200;" fill="rgb(50, 49, 63)" stroke="none" stroke-width="1px">10</text><text x="0" y="136.15384615384616" dx="0em" dy="0.3em" style="text-anchor: end; visibility: inherit; font-family: &quot;Helvetica Neue&quot;, sans-serif; font-size: 12px; font-weight: 200;" fill="rgb(50, 49, 63)" stroke="none" stroke-width="1px">20</text><text x="0" y="122.53846153846153" dx="0em" dy="0.3em" style="text-anchor: end; visibility: hidden; font-family: &quot;Helvetica Neue&quot;, sans-serif; font-size: 12px; font-weight: 200;" fill="rgb(50, 49, 63)" stroke="none" stroke-width="1px">30</text><text x="0" y="108.92307692307692" dx="0em" dy="0.3em" style="text-anchor: end; visibility: inherit; font-family: &quot;Helvetica Neue&quot;, sans-serif; font-size: 12px; font-weight: 200;" fill="rgb(50, 49, 63)" stroke="none" stroke-width="1px">40</text><text x="0" y="95.3076923076923" dx="0em" dy="0.3em" style="text-anchor: end; visibility: hidden; font-family: &quot;Helvetica Neue&quot;, sans-serif; font-size: 12px; font-weight: 200;" fill="rgb(50, 49, 63)" stroke="none" stroke-width="1px">50</text><text x="0" y="81.6923076923077" dx="0em" dy="0.3em" style="text-anchor: end; visibility: inherit; font-family: &quot;Helvetica Neue&quot;, sans-serif; font-size: 12px; font-weight: 200;" fill="rgb(50, 49, 63)" stroke="none" stroke-width="1px">60</text><text x="0" y="68.07692307692307" dx="0em" dy="0.3em" style="text-anchor: end; visibility: hidden; font-family: &quot;Helvetica Neue&quot;, sans-serif; font-size: 12px; font-weight: 200;" fill="rgb(50, 49, 63)" stroke="none" stroke-width="1px">70</text><text x="0" y="54.46153846153847" dx="0em" dy="0.3em" style="text-anchor: end; visibility: inherit; font-family: &quot;Helvetica Neue&quot;, sans-serif; font-size: 12px; font-weight: 200;" fill="rgb(50, 49, 63)" stroke="none" stroke-width="1px">80</text><text x="0" y="40.84615384615384" dx="0em" dy="0.3em" style="text-anchor: end; visibility: hidden; font-family: &quot;Helvetica Neue&quot;, sans-serif; font-size: 12px; font-weight: 200;" fill="rgb(50, 49, 63)" stroke="none" stroke-width="1px">90</text><text x="0" y="27.230769230769226" dx="0em" dy="0.3em" style="text-anchor: end; visibility: inherit; font-family: &quot;Helvetica Neue&quot;, sans-serif; font-size: 12px; font-weight: 200;" fill="rgb(50, 49, 63)" stroke="none" stroke-width="1px">100</text><text x="0" y="13.615384615384613" dx="0em" dy="0.3em" style="text-anchor: end; visibility: hidden; font-family: &quot;Helvetica Neue&quot;, sans-serif; font-size: 12px; font-weight: 200;" fill="rgb(50, 49, 63)" stroke="none" stroke-width="1px">110</text><text x="0" y="0" dx="0em" dy="0.3em" style="text-anchor: end; visibility: hidden; font-family: &quot;Helvetica Neue&quot;, sans-serif; font-size: 12px; font-weight: 200;" fill="rgb(50, 49, 63)" stroke="none" stroke-width="1px">120</text></g><line x1="42.390625" y1="0" x2="42.390625" y2="177" fill="rgb(0, 0, 0)" stroke="rgb(204, 204, 204)" stroke-width="1px"></line></g></g><g transform="translate(42, 0)" clip-path="url(#clip_0)"><clipPath id="clip_0"><rect width="287" height="177"></rect></clipPath><g><g><g><line x1="0" y1="0" x2="0" y2="177" fill="rgb(0, 0, 0)" stroke="rgb(60, 60, 60)" stroke-width="1px" opacity="0.25"></line><line x1="31.95659722222222" y1="0" x2="31.95659722222222" y2="177" fill="rgb(0, 0, 0)" stroke="rgb(60, 60, 60)" stroke-width="1px" opacity="0.25"></line><line x1="63.91319444444444" y1="0" x2="63.91319444444444" y2="177" fill="rgb(0, 0, 0)" stroke="rgb(60, 60, 60)" stroke-width="1px" opacity="0.25"></line><line x1="95.86979166666666" y1="0" x2="95.86979166666666" y2="177" fill="rgb(0, 0, 0)" stroke="rgb(60, 60, 60)" stroke-width="1px" opacity="0.25"></line><line x1="127.82638888888889" y1="0" x2="127.82638888888889" y2="177" fill="rgb(0, 0, 0)" stroke="rgb(60, 60, 60)" stroke-width="1px" opacity="0.25"></line><line x1="159.78298611111111" y1="0" x2="159.78298611111111" y2="177" fill="rgb(0, 0, 0)" stroke="rgb(60, 60, 60)" stroke-width="1px" opacity="0.25"></line><line x1="191.73958333333331" y1="0" x2="191.73958333333331" y2="177" fill="rgb(0, 0, 0)" stroke="rgb(60, 60, 60)" stroke-width="1px" opacity="0.25"></line><line x1="223.69618055555557" y1="0" x2="223.69618055555557" y2="177" fill="rgb(0, 0, 0)" stroke="rgb(60, 60, 60)" stroke-width="1px" opacity="0.25"></line><line x1="255.65277777777777" y1="0" x2="255.65277777777777" y2="177" fill="rgb(0, 0, 0)" stroke="rgb(60, 60, 60)" stroke-width="1px" opacity="0.25"></line><line x1="287.609375" y1="0" x2="287.609375" y2="177" fill="rgb(0, 0, 0)" stroke="rgb(60, 60, 60)" stroke-width="1px" opacity="0.25"></line></g><g><line x1="0" y1="177" x2="287.609375" y2="177" fill="rgb(0, 0, 0)" stroke="rgb(60, 60, 60)" stroke-width="1px" opacity="0.25"></line><line x1="0" y1="163.3846153846154" x2="287.609375" y2="163.3846153846154" fill="rgb(0, 0, 0)" stroke="rgb(60, 60, 60)" stroke-width="1px" opacity="0.25"></line><line x1="0" y1="149.76923076923077" x2="287.609375" y2="149.76923076923077" fill="rgb(0, 0, 0)" stroke="rgb(60, 60, 60)" stroke-width="1px" opacity="0.25"></line><line x1="0" y1="136.15384615384616" x2="287.609375" y2="136.15384615384616" fill="rgb(0, 0, 0)" stroke="rgb(60, 60, 60)" stroke-width="1px" opacity="0.25"></line><line x1="0" y1="122.53846153846153" x2="287.609375" y2="122.53846153846153" fill="rgb(0, 0, 0)" stroke="rgb(60, 60, 60)" stroke-width="1px" opacity="0.25"></line><line x1="0" y1="108.92307692307692" x2="287.609375" y2="108.92307692307692" fill="rgb(0, 0, 0)" stroke="rgb(60, 60, 60)" stroke-width="1px" opacity="0.25"></line><line x1="0" y1="95.3076923076923" x2="287.609375" y2="95.3076923076923" fill="rgb(0, 0, 0)" stroke="rgb(60, 60, 60)" stroke-width="1px" opacity="0.25"></line><line x1="0" y1="81.6923076923077" x2="287.609375" y2="81.6923076923077" fill="rgb(0, 0, 0)" stroke="rgb(60, 60, 60)" stroke-width="1px" opacity="0.25"></line><line x1="0" y1="68.07692307692307" x2="287.609375" y2="68.07692307692307" fill="rgb(0, 0, 0)" stroke="rgb(60, 60, 60)" stroke-width="1px" opacity="0.25"></line><line x1="0" y1="54.46153846153847" x2="287.609375" y2="54.46153846153847" fill="rgb(0, 0, 0)" stroke="rgb(60, 60, 60)" stroke-width="1px" opacity="0.25"></line><line x1="0" y1="40.84615384615384" x2="287.609375" y2="40.84615384615384" fill="rgb(0, 0, 0)" stroke="rgb(60, 60, 60)" stroke-width="1px" opacity="0.25"></line><line x1="0" y1="27.230769230769226" x2="287.609375" y2="27.230769230769226" fill="rgb(0, 0, 0)" stroke="rgb(60, 60, 60)" stroke-width="1px" opacity="0.25"></line><line x1="0" y1="13.615384615384613" x2="287.609375" y2="13.615384615384613" fill="rgb(0, 0, 0)" stroke="rgb(60, 60, 60)" stroke-width="1px" opacity="0.25"></line><line x1="0" y1="0" x2="287.609375" y2="0" fill="rgb(0, 0, 0)" stroke="rgb(60, 60, 60)" stroke-width="1px" opacity="0.25"></line></g></g></g><g><g><line x1="0" y1="163.3846153846154" x2="287.609375" y2="163.3846153846154" fill="rgb(0, 0, 0)" stroke="rgb(153, 153, 153)" stroke-width="1.5px"></line></g></g><g><g><line x1="31.95659722222222" y1="0" x2="31.95659722222222" y2="177" fill="rgb(0, 0, 0)" stroke="rgb(153, 153, 153)" stroke-width="1.5px"></line></g></g><g><g><g><g><g><path stroke="rgb(255, 112, 67)" stroke-width="2px" d="M32.435946180555554,139.67569673978366L32.755512152777776,138.36857659083145L32.91529513888889,136.64842032637665L33.23486111111111,132.3471812988838L33.55442708333334,129.63396488348127L33.71421006944445,127.69661162123742L33.87399305555555,126.42110351218417L34.03377604166667,117.549690081753L34.19355902777778,113.69320315191413L34.35334201388889,114.68619829709422L34.513125,116.03767452812951L34.67290798611111,117.81216451071181L34.832690972222224,119.76240444888612L34.992473958333335,121.92796940577463L35.152256944444446,123.71437676867643L35.47182291666667,125.23090184632878L35.79138888888889,126.22232896535664L35.951171875,126.76500307958051L36.750086805555554,112.66278494323521L36.909869791666665,104.47724699018517L37.069652777777776,100.24519006919768L37.22943576388889,98.0341529983662L37.38921875,96.48852893264065L37.70878472222223,95.04555944051391L38.18813368055555,89.51277666521678L38.34791666666666,85.42193185743476L38.66748263888889,81.93031900236718L38.827265625,79.52156131644692L38.98704861111111,77.46379378689112L39.14683159722222,75.71564400277673L39.466397569444446,74.17858992374605L39.78596354166667,72.84296394879856L39.94574652777778,71.94529016253874L40.42509548611111,68.6454943154802L40.58487847222222,66.55924667361636L40.74466145833333,65.36068320815349L40.904444444444444,64.39955294779014L41.064227430555555,63.734674792234415L41.54357638888889,63.17102368512003L41.703359375,62.734735604719546L42.02292534722222,62.33246684609536L42.34249131944445,61.295543809081266L42.50227430555556,60.45400146549423L42.66205729166667,59.71639126378416L42.821840277777774,59.12091799138166L42.981623263888885,58.68784526595586L43.301189236111114,58.388873189272346L43.460972222222225,58.28119425610909L43.620755208333335,58.1201889094325L43.780538194444446,58.052837504312805L44.10010416666666,57.96101578665426L44.41967013888889,56.25275129891067L44.579453125,55.46047740194115L44.89901909722222,55.025001885875795L45.05880208333333,54.8528016122946L45.378368055555555,54.748721067474364L45.538151041666666,54.67273962666248L45.69793402777778,54.68162808996233L45.85771701388889,54.670710628015854L46.0175,54.66899667052948L46.177282986111116,54.64429677316353L46.49684895833333,54.1297571504366L46.65663194444444,53.76784828064656L46.81641493055555,53.45762904050332L46.97619791666666,53.26484935939814L47.77511284722222,53.01991268148173L48.25446180555556,52.73740347108104L48.57402777777778,52.613325496110164L48.73381076388889,52.15993490103148L48.89359375,51.788178488695806L50.012074652777784,51.30983617975595L50.49142361111111,50.97588248177934L50.81098958333333,50.419581472240694L50.97077256944444,50.025967633344436L51.13055555555556,49.71334575428551L51.769687499999996,49.57563365449441L51.92947048611111,49.42800423491417L52.089253472222225,49.28742153133312L52.249036458333336,49.17744749606099L52.56860243055556,49.089748597358636L52.72838541666666,49.294549278607505L53.207734375,49.051782151299136L53.687083333333334,48.81399947125573L53.846866319444445,48.63048952650345L54.166432291666666,48.42066150436361L54.48599826388889,48.27038680364734L54.64578125,48.18279813631247L54.80556423611111,47.580306886595196L54.96534722222223,47.378367425226344L55.12513020833334,47.31482232093359L55.28491319444444,47.33209501515634L55.604479166666664,47.415588138901484L55.764262152777775,47.43339484266329L55.92404513888889,47.51791889177588L56.403394097222225,47.54762936334831L56.56317708333333,47.580364093557364L56.72296006944444,47.584705906367276L57.04252604166667,47.32782174093575L57.20230902777778,47.40416137670536L57.36209201388889,47.428911339244365L57.681657986111105,47.338500532325156L57.841440972222216,47.34155267910813L58.161006944444445,47.34591856941651L58.320789930555556,47.22709741568835L58.64035590277778,47.12766232843194L58.800138888888895,47.061469481456726L58.959921875,46.7878432273356L59.27948784722222,46.77878928694972L59.91861979166667,46.479575747838396L60.07840277777778,46.27582763019342L60.238185763888886,46.1421273435908L60.39796875,46.06604563692372L60.71753472222222,46.02992422428915L60.87731770833334,46.00525971504976L61.19688368055556,45.868247475664475L61.51644965277777,45.909030666889066L61.676232638888884,45.84109147705652L61.836015625,45.827365105397064L61.99579861111111,45.754862572853625L62.315364583333334,45.664084488949555L62.475147569444445,45.64758681115819L63.59362847222222,45.50738471890645L64.23276041666666,45.3734024359112L64.87189236111111,45.33955002524863L65.03167534722222,45.32744071789858L65.19145833333333,45.22887128170066L65.83059027777777,44.95432998055887L65.99037326388888,44.82107166340293L66.15015625000001,44.674319516408644L66.30993923611112,44.53118425792209L66.78928819444444,44.40662341063518L66.94907118055555,44.33400184085227L67.10885416666667,44.29386515480431L67.26863715277779,44.84805887653644L67.4284201388889,44.50911327063341L67.58820312499999,44.33898659218775L67.90776909722221,44.189043998581866L68.06755208333334,43.99625253815907L68.22733506944445,43.90590706394863L68.54690104166667,43.92535698250981L68.70668402777778,43.96214027123665L68.86646701388888,43.962454216077305L69.02625,43.943400381396685L69.18603298611112,43.93751096482811L69.34581597222223,44.20876559331995L69.82516493055556,44.11224102666503L69.98494791666667,44.1487298323452L70.30451388888889,44.14174942566163L70.94364583333333,44.06901057881191L71.10342881944445,43.99293267221955L71.42299479166667,43.9627968629471L71.58277777777778,43.77186381488366L71.74256076388889,43.62627796159393L71.90234375,43.49682296686021L72.06212673611111,43.356657482039225L72.22190972222222,43.27300278530976L72.70125868055555,43.29150599810893L73.18060763888889,43.257180374518896L73.340390625,43.24475805381289L73.50017361111111,43.38092935151849L73.65995659722222,43.4493358561034L73.97952256944446,43.470435347796666L74.61865451388888,43.395007227307815L74.9382204861111,43.2211089036924L75.25778645833333,43.171729227243986L75.41756944444445,43.1314020758596L75.57735243055555,42.78106480320807L75.73713541666666,42.484436658367144L75.89691840277779,42.437207851202686L76.21648437500001,42.37252603283696L76.3762673611111,42.356765201846116L76.69583333333333,42.36946777495382L77.01539930555556,42.37310043660693L77.33496527777778,42.32275975114686L78.13388020833334,42.41886994323622L78.45344618055556,42.33581577322087L78.61322916666666,42.385389539991706L78.93279513888889,42.464940811585166L79.092578125,42.49819525618187L79.25236111111111,42.57641053374218L79.41214409722221,42.582142026187285L79.57192708333334,42.57940646439778L79.73171006944443,42.31690469594636L79.89149305555556,42.345551471413955L80.05127604166667,42.40262835880992L80.21105902777778,42.43687449124752L80.37084201388889,42.393600055325436L81.00997395833333,42.398956429304036L81.16975694444444,42.352234434505505L81.48932291666667,42.310240149886L81.968671875,41.97590520772005L82.60780381944444,41.906052322160576L82.76758680555557,41.75713467041473L82.92736979166666,41.64071785152768L83.08715277777777,41.63845853825288L83.40671875,41.650802267633196L83.56650173611112,41.69326080769531L83.72628472222222,41.70624158922206L83.88606770833334,41.95256105930247L84.04585069444444,41.98733441202381L84.20563368055556,41.806539652435134L84.6849826388889,41.751247892835806L84.844765625,41.69654533839076L85.16433159722222,41.69559331255968L85.80346354166667,41.63139111561574L86.1230295138889,41.801280582831L86.44259548611112,41.75030711171783L86.60237847222223,41.593408425684544L86.76216145833334,41.51921362512226L86.92194444444445,41.49654002997872L87.08172743055555,41.45943055344395L87.24151041666667,41.445475038797156L87.40129340277777,41.45438688625907L87.56107638888889,41.461790762126554L88.04042534722223,41.22085450535286L88.35999131944445,41.351081029721655L88.51977430555556,41.40040973562145L88.83934027777778,41.45438484659374L89.15890625,41.432475409158144L89.3186892361111,41.467711563854266L89.47847222222222,41.477036193120256L89.63825520833333,41.48263097067982L89.79803819444444,41.4904213135903L89.95782118055556,41.49848606921637L90.11760416666667,41.841204021337546L90.27738715277778,41.98035342241789L90.596953125,42.03725051498921L90.75673611111111,42.05543324168585L91.07630208333333,41.89994831828375L91.23608506944444,41.77959113640293L91.55565104166668,41.70804164097635L91.87521701388889,41.63674517407654L92.035,41.60152954979597L92.19478298611111,41.3445866000699L92.35456597222223,41.310087296580406L92.51434895833333,41.187450998553714L92.83391493055555,41.112094998170676L92.99369791666666,41.04427773207547L93.31326388888888,41.00524940667319L93.47304687500001,41.014890272759914L93.6328298611111,41.015206699713644L93.79261284722223,41.016967178256664L93.95239583333333,41.01600824884855L94.27196180555556,41.485235958924505L94.43174479166666,41.47425455612395L94.59152777777778,41.38345459383811L94.75131076388888,41.283547065197126L95.55022569444444,41.01344662666335L95.71000868055556,40.86675187022877L96.18935763888888,40.799693268321164L96.349140625,40.59755935041579L96.66870659722223,40.533897572201084L96.82848958333334,40.43808193274373L97.14805555555556,40.42491484755939L98.26653645833333,40.48557766454525L98.42631944444445,40.80797820930408L98.90566840277778,40.76208560346706L99.06545138888889,40.715935256310985L99.225234375,40.713507968690436L99.38501736111111,40.743393407078145L99.70458333333333,40.714471924467745L100.02414930555557,40.628622448175236L100.34371527777779,40.55878467965482L100.66328125,40.59262507461983L100.98284722222222,40.58301269501226L101.46219618055557,40.51123757681805L102.101328125,40.40272990711847L102.26111111111112,40.332788785617254L102.42089409722222,40.2963254460999L102.58067708333334,41.0667225513138L102.90024305555555,41.13893539095204L103.06002604166667,41.04708569370584L103.53937499999999,40.70040936112281L103.69915798611112,40.51472052652946L104.01872395833334,40.361423962552294L104.49807291666667,40.25359852754639L104.977421875,40.159098837268544L105.13720486111112,40.25973965091882L105.29698784722223,40.36932035305131L105.45677083333332,40.332687464234624L105.61655381944445,40.33065214200229L105.93611979166667,40.273291586621156L106.09590277777778,40.280388713991925L106.25568576388889,40.2944363721752L106.41546875,40.29551462059328L106.57525173611111,40.2979233259542L106.73503472222222,39.83112779364944L106.89481770833332,39.73055017378584L107.21438368055556,39.67352767037727L107.53394965277778,39.77338631658182L107.69373263888889,39.86210871302603L108.17308159722222,39.80897195858486L108.33286458333333,39.818187857955905L108.97199652777778,39.74937876044663L109.45134548611111,39.778563554344885L109.61112847222222,39.81646343590472L109.93069444444446,39.745020038706286L110.09047743055555,39.67814591557655L110.41004340277777,39.68529800607669L110.729609375,39.69216541347177L111.20895833333333,39.675979954400646L111.36874131944445,39.67735029235192L112.3274392361111,39.90819803598808L112.80678819444445,39.98057433917094L112.96657118055556,39.89334760831028L113.12635416666666,39.787826473639996L113.28613715277778,39.71565099517409L113.44592013888888,39.73106953340255L113.605703125,39.730348450810766L113.76548611111112,39.71661952721723L114.08505208333334,39.67015538520053L114.24483506944443,39.63322712347309L114.40461805555556,39.566602439949236L114.56440104166666,39.54222166623066L114.72418402777778,39.537262086276854L114.88396701388889,39.54016578448096L115.04375,39.376473268765494L115.68288194444443,39.52290920164393L115.84266493055556,39.67858175896714L116.80136284722222,39.69553171763988L117.12092881944444,40.10791398250703L117.28071180555555,40.02293649046575L117.44049479166667,40.056161115846464L117.60027777777779,39.97194035941172L117.76006076388889,39.88550796564704L117.91984375,39.80971523611899L118.07962673611111,39.72245190215065L118.23940972222222,39.68528904994426L118.39919270833333,39.6349195800567L118.55897569444444,39.583573442745546L118.71875868055557,39.507678926111566L118.87854166666666,39.48994389412849L119.03832465277777,39.48998975519703L119.19810763888889,39.319775103118246L119.357890625,39.27747954504403L119.51767361111112,39.39614656397805L119.67745659722222,39.403080065790675L119.99702256944444,39.480369674089815L120.15680555555556,39.41847437262547L120.31658854166666,39.348333346532L120.6361545138889,39.26004417859227L120.95572048611112,39.205076236722704L121.27528645833334,39.28178973241822L121.43506944444444,39.37435478897018L121.91441840277777,39.08552032530517L122.0742013888889,38.96628977650073L122.23398437499999,38.88588864955429L122.55355034722223,38.77707513496995L122.71333333333334,38.70853774925118L122.87311631944445,38.668383452773355L123.19268229166667,38.66593056088428L123.51224826388889,38.56606224278056L123.67203125,38.46846709044746L123.99159722222223,38.565920999460815L124.15138020833332,38.590267626531954L124.31116319444445,38.563403693031546L124.47094618055556,38.54277290992951L124.63072916666667,38.51506632915331L124.79051215277778,38.524739917684315L124.95029513888889,38.57261015779207L125.110078125,38.59981985068487L125.2698611111111,38.632416981775094L125.58942708333333,38.85176839819968L125.74921006944444,39.00332365911211L125.90899305555556,38.984562554842256L126.3883420138889,38.97473108665386L126.548125,38.94247649754519L126.70790798611111,38.88341774573266L127.02747395833333,38.833747171252696L127.18725694444444,38.78530926748269L127.34703993055555,38.74371063185379L127.50682291666668,38.68585979257381L127.82638888888889,38.664445563044296L128.1459548611111,38.7101006310958L128.30573784722222,38.71666422762834L128.46552083333333,38.68292822407702L128.78508680555555,38.68189142776049L129.10465277777777,38.6693151685929L129.42421875,38.69262923411847L129.5840017361111,38.45576684335569L129.74378472222222,38.47985283437882L130.22313368055555,38.47436001793497L130.862265625,38.426742029578605L131.0220486111111,38.4438231624587L131.18183159722224,38.438236810824066L131.34161458333332,38.452714472311726L131.50139756944444,38.45483603389786L131.82096354166666,38.87153443283873L131.98074652777777,39.0018870058571L132.4600954861111,39.146579919860415L132.61987847222224,39.22009939422395L132.93944444444443,39.219888780351965L133.25901041666665,39.175847311931136L133.4187934027778,39.11355988674552L133.8981423611111,38.95430630464347L134.37749131944443,38.99038726836301L134.53727430555557,38.986772925921656L134.8568402777778,38.948039566851065L135.01662326388887,38.920735877655716L135.17640624999999,38.885148858324186L135.33618923611112,38.88797093496149L135.4959722222222,38.88321964312081L135.65575520833335,38.87216672896895L135.81553819444443,38.776229724881375L135.97532118055557,38.49927900079422L136.13510416666668,38.28213813083261L136.77423611111112,38.25315875177179L136.9340190972222,38.29845474625537L137.25358506944445,38.34158787179172L137.57315104166668,38.30386585126763L137.73293402777776,38.29799425441291L137.8927170138889,38.25887467764775L138.0525,38.162273424377105L138.21228298611112,38.181875656000955L138.37206597222223,38.12937028542751L138.53184895833334,38.15770029625651L138.69163194444445,38.1547538916962L138.85141493055553,38.11404874145552L139.17098090277779,38.129302564059L139.3307638888889,38.120430096127706L139.490546875,38.09069133216582L139.65032986111112,38.05028180369402L139.81011284722223,38.027116408876566L140.12967881944445,38.14953306647979L140.28946180555556,38.13877194043624L140.44924479166667,38.093535850559846L140.7688107638889,38.07193292578813L140.92859375,38.070052784319046L141.08837673611112,38.04067011710583L141.24815972222223,38.00549774521846L141.40794270833334,38.0182250293426L141.56772569444445,38.0426645661332L141.72750868055556,38.062463974054936L141.88729166666667,38.06601267210573L142.04707465277778,37.8670565215327L142.5264236111111,38.030228654506146L142.84598958333333,37.98519698837677L143.16555555555556,37.93324747487702L143.6449045138889,37.89618585534387L143.8046875,37.879288168667586L143.9644704861111,37.87441405016389L144.12425347222222,37.7388010743291L144.28403645833333,37.67072956286671L144.44381944444444,37.86035679101781L144.60360243055555,38.02288474768761L144.76338541666667,38.0113720745741L144.9231684027778,38.05144602400378L145.0829513888889,38.07675353969523L145.242734375,38.08624142670175L145.4025173611111,38.04613680501444L145.56230034722222,38.05723436666253L146.04164930555555,38.06614496006662L146.20143229166666,37.88043216834765L146.68078125,37.95182826134513L146.8405642361111,38.128293471230165L147.16013020833336,38.12666391138896L147.31991319444444,38.09291917015068L147.47969618055555,38.04423491930797L147.63947916666666,38.04279696120017L147.79926215277777,38.03806580160742L147.9590451388889,38.02535462237822L148.43839409722221,38.181716679676924L148.59817708333335,38.1758118587677L148.75796006944447,38.24539847343371L149.3970920138889,38.298784682016986L149.556875,38.29923775632557L149.8764409722222,38.294673081229234L150.03622395833332,38.302309525007075L150.19600694444446,38.28725445655323L150.35578993055555,37.9865053181627L150.67535590277777,37.9168595038108L151.1547048611111,37.79972369225794L151.3144878472222,37.77186562968021L151.63405381944446,37.69943109374111L151.79383680555557,37.67635937739851L151.95361979166665,37.628428025026835L152.11340277777776,37.58456132222764L152.2731857638889,37.55489230152469L152.43296875000001,37.54708802514557L152.59275173611113,37.62883124056813L152.7525347222222,37.582588590907875L153.23188368055557,37.461769082842494L153.39166666666665,37.41713307211384L153.7112326388889,37.36397082696723L154.03079861111112,37.31045041422422L154.1905815972222,37.32729338555376L154.35036458333332,37.34062351480583L154.51014756944446,37.73763733003736L154.82971354166668,37.69219038799386L154.98949652777776,37.672679767652085L155.14927951388887,37.67892336539893L155.3090625,37.64145107452782L155.46884548611112,37.61042068884984L155.62862847222223,37.635252187949334L155.78841145833331,37.57905341707399L155.94819444444445,37.60014388918671L156.42754340277776,37.66771593931881L156.58732638888887,37.54830083762974L157.06667534722223,37.57637383190479L157.2264583333333,37.70623595779671L157.38624131944445,37.70216092845658L157.70580729166667,37.68697226320376L158.02537326388887,37.74201358628764L158.18515625,37.74034757015448L158.34493923611112,37.744786967573475L158.50472222222223,37.74252267445934L158.66450520833334,38.0984432921756L158.82428819444442,38.391773307036146L158.98407118055556,38.31070863284697L159.14385416666667,38.2897717842755L159.46342013888886,38.28053374364222L159.623203125,38.27499091926228L159.78298611111111,38.309892012494856L160.10255208333334,38.232772647400736L160.58190104166667,38.125720435645974L160.74168402777778,37.543881780618364L160.9014670138889,37.434111520294095L161.06125,37.40370470984024L161.2210329861111,37.406514442490675L161.54059895833333,37.41817248760978L161.70038194444444,37.46885388506888L161.86016493055556,37.44061784486345L162.17973090277778,37.41337160836039L162.3395138888889,37.417450267450135L162.6590798611111,37.41214407310531L163.13842881944444,37.48359815979617L163.45799479166666,37.42719315068541L163.61777777777777,37.43722784954585L163.77756076388889,37.46129420578373L164.25690972222222,37.46566624702794L164.41669270833333,37.47421046880723L164.73625868055558,37.5061082186341L164.89604166666666,37.26518836868047L165.21560763888888,37.09404391063134L165.375390625,37.0777830170519L165.53517361111113,37.08265238234654L165.85473958333333,37.09849216276879L166.01452256944444,37.10205841364686L166.49387152777777,37.158139485913466L166.65365451388888,37.19712741431701L166.97322048611113,37.066503612051775L167.13300347222224,37.06125883790412L167.29278645833332,37.10464893255019L167.45256944444444,37.24370131866473L167.77213541666669,37.27394765417961L167.93191840277777,37.28924506674156L168.09170138888888,37.26470914941993L168.251484375,37.2518324570498L168.57105034722224,37.189982296119894L168.89061631944443,37.162383190585075L169.21018229166668,37.02571266675491L169.3699652777778,36.86614736887057L169.52974826388888,36.79811014608197L169.68953125,36.67019721745686L169.8493142361111,36.69716039778183L170.48844618055554,36.75588638289989L170.64822916666668,36.80538638296258L170.8080121527778,36.841431198767935L170.96779513888887,36.86175754644677L171.44714409722224,37.15336624380106L171.60692708333335,37.33941307560755L171.76671006944443,37.38057092228763L171.92649305555554,37.3649322140171L172.08627604166668,37.294452609848065L172.4058420138889,37.231268921678094L172.56562499999998,37.16543653329529L172.7254079861111,37.115179583551395L172.88519097222223,37.10487010270745L173.20475694444445,37.263778431816775L173.52432291666668,37.2749123086769L173.6841059027778,37.31594272775422L173.8438888888889,37.27075554049867L174.003671875,37.23920975177066L174.1634548611111,37.19622433269552L174.48302083333334,37.188582495312914L174.64280381944445,37.149132069303135L174.80258680555553,37.102978645315346L175.12215277777779,37.063344874801885L175.2819357638889,36.44108685276575L175.6015017361111,36.431164914957236L175.76128472222223,36.50055592012819L176.40041666666664,36.608671893423065L176.56019965277778,36.6809292196626L176.879765625,36.73744277161879L177.03954861111112,36.75966680198118L177.19933159722223,36.765862783074226L177.35911458333334,36.79444855926761L177.51889756944445,36.58556336632981L177.67868055555556,36.40704715441325L177.83846354166664,36.47278898976336L178.1580295138889,36.49007501927116L178.3178125,36.505511686367385L178.4775954861111,36.48034464703679L178.95694444444445,36.45874586950214L179.11672743055556,36.48053973924934L179.27651041666667,36.501444242437856L179.43629340277778,37.08787075219348L179.755859375,37.10288633071062L180.71455729166667,36.95677386573408L180.8743402777778,36.874424896363536L181.0341232638889,36.81123725076881L181.3536892361111,36.819678798778625L181.99282118055555,36.736988318930656L182.47217013888888,36.64416114039685L182.95151909722222,36.64297955683426L183.43086805555555,36.615245929713524L183.59065104166666,36.384967870328126L183.9102170138889,36.48613396738921L184.07,36.61996313283737L184.2297829861111,36.67499771143321L184.38956597222221,36.7354960399083L184.70913194444447,36.73633969125268L184.86891493055555,36.71025333398239L185.02869791666666,36.678645990774044L185.18848090277777,36.68893338773367L185.3482638888889,36.6807001440059L185.508046875,36.674912560299276L185.6678298611111,36.80635979579495L185.8276128472222,36.7855060818039L185.98739583333332,36.80180106213072L186.30696180555555,36.66443400266306L186.46674479166666,36.61392482467474L186.7863107638889,36.58195728362699L187.1058767361111,36.537846245176155L187.2656597222222,36.46303104563336L187.58522569444446,36.385283508690094L187.90479166666665,36.519564035502526L188.06457465277776,36.580187940532284L188.2243576388889,36.656451105665525L188.38414062500001,36.593179557630094L188.86348958333332,36.637653527847306L189.02327256944446,36.664337909977604L189.18305555555557,36.661733755601944L189.34283854166665,36.67515865686926L189.6624045138889,36.65524987129254L189.8221875,36.502044153544745L190.1417534722222,36.44114674734769L190.30153645833332,36.29712870345668L191.10045138888887,36.238419833064086L191.260234375,36.2000906618577L191.57980034722223,36.20457074045146L191.73958333333331,36.20297489431593L192.05914930555556,36.43012327793571L192.21893229166668,36.44674584176141L192.37871527777776,36.35367325625879L192.53849826388887,36.315779674909095L192.85806423611112,36.315456058025376L193.01784722222223,36.308140071113314L193.1776302083333,36.25093518543392L193.49719618055556,36.18813745215576L193.65697916666667,36.15640473973548L193.81676215277778,36.12832780102278L193.97654513888887,36.06622444503674L194.45589409722223,36.04890684250282L194.77546006944442,35.95652397610715L195.574375,35.972811034364696L195.73415798611111,36.001721593763364L195.89394097222223,36.02135738158853L196.05372395833334,36.015338467414665L196.37328993055556,36.069345691438855L196.69285590277778,36.03349443409411L196.8526388888889,36.00489094850482L197.012421875,36.0168560074668L197.33198784722222,36.009683377053676L197.49177083333333,36.010993319501466L197.65155381944444,36.02725282388235L197.81133680555556,36.0332814146945L197.97111979166667,36.04247469410666L198.45046875,35.92163866261785L198.6102517361111,35.91561841391686L198.77003472222222,35.877435952196294L199.56894965277777,35.77873771314469L199.72873263888889,35.74043131572486L199.888515625,35.75481831749232L200.04829861111114,35.763205368500195L200.36786458333333,35.74078079321549L200.52764756944444,35.58106703362162L200.68743055555558,35.52845166849028L200.84721354166666,35.45366955878649L201.00699652777777,35.49079259783949L201.80591145833333,35.48184095270909L201.96569444444444,35.470025427807855L202.12547743055555,35.46597763555337L202.2852604166667,35.84166590825512L202.44504340277777,35.96735681658768L202.60482638888888,35.95634558033723L202.92439236111113,36.03749424724083L203.24395833333332,36.104798231036824L203.40374131944444,36.15182875833361L203.56352430555555,36.16896546131778L203.72330729166669,36.14911064698299L203.88309027777777,36.14033900312367L204.04287326388888,36.134373807335436L204.20265625,36.128181140996816L204.52222222222224,36.179154778348106L204.68200520833332,35.990350439124256L204.84178819444443,35.85712342453223L205.00157118055554,35.8449982133732L205.16135416666668,35.79207116078385L205.3211371527778,35.797989090701066L205.48092013888888,35.85472494480527L206.12005208333335,35.9508143510854L206.43961805555554,36.10597538949739L206.59940104166668,36.08605368321767L207.07874999999999,36.09936358012291L207.39831597222224,36.10203100865067L207.55809895833335,36.08534908896445L207.87766493055554,36.028470571167134L208.1972309027778,35.9963379015945L208.3570138888889,35.98109704309013L208.51679687499998,36.42995930758485L208.83636284722223,36.238340551310216L209.31571180555554,36.12115048181528L209.47549479166668,36.07901207582293L209.95484375,36.08716085126298L210.27440972222223,36.09359996346964L210.75375868055553,36.184998619908725L211.2331076388889,36.105545445983694L211.392890625,36.017099686272616L211.5526736111111,35.99568982791442L211.71245659722223,35.98331759266213L211.87223958333334,35.9659220459819L212.03202256944445,35.99271428528144L212.19180555555556,35.978810685990084L212.35158854166664,35.91779035070914L212.51137152777778,35.872967700321794L212.6711545138889,35.939600932693054L212.99072048611112,35.691496319644386L213.15050347222223,35.54817228096931L213.31028645833334,35.47613894550469L213.78963541666664,35.422281924995104L213.94941840277778,35.434290011179456L214.268984375,35.42739250223801L214.4287673611111,35.44400449454443L214.5885503472222,35.45798965773926L214.74833333333333,35.58424391483587L215.06789930555556,35.67772621950698L215.5472482638889,35.63187473129105L215.70703125,35.58220476665926L215.8668142361111,35.4776112464138L216.02659722222222,35.41134824198892L216.18638020833333,35.37144085625104L216.34616319444444,35.31715598948682L216.50594618055555,35.2792457843847L216.66572916666667,35.25783759889853L216.8255121527778,35.09185700645452L216.9852951388889,35.02550933608427L217.145078125,35.0100786212945L217.3048611111111,35.09943283984401L217.46464409722222,35.124458381791044L217.62442708333336,35.15808849061307L217.94399305555555,35.2015350354736L218.10377604166666,35.18955899829737L218.26355902777777,35.1772044494592L218.42334201388888,35.18731787137324L220.021171875,35.10605433460279L220.50052083333335,35.1603423363386L220.66030381944447,35.21064488779322L220.82008680555555,35.23192622523152L220.97986979166666,35.18268037456198L221.2994357638889,35.2860956045449L221.45921875,35.23845048171734L221.6190017361111,35.25839480826116L221.7787847222222,35.33152426476437L221.93856770833332,35.364004538763965L222.25813368055555,35.38750236080344L222.41791666666666,35.391703640039765L222.57769965277777,35.4018406795542L222.7374826388889,35.36994542054052L222.89726562500002,35.35909350589253L223.0570486111111,35.192499372766264L223.2168315972222,35.41830160683284L223.37661458333332,35.45849436835903L223.53639756944446,35.52803757654428L223.85596354166665,35.44898762724415L224.1755295138889,35.39601892850996L224.33531250000001,35.36534711713452L224.6548784722222,35.34492881377531L224.97444444444446,35.31576247813146L225.29401041666665,35.38588927774424L225.45379340277776,35.44347629219493L225.6135763888889,35.336202962817L225.773359375,35.2718389651902L225.93314236111112,35.20884267918174L226.0929253472222,35.18022764683448L226.73205729166668,35.28825135766948L227.05162326388887,35.34384129405635L227.53097222222223,35.29415171434695L227.69075520833331,35.12694174976204L228.01032118055556,35.000023222934146L228.17010416666668,34.921973232701305L228.32988715277776,34.88535228397171L228.80923611111112,34.87441146710029L228.96901909722223,34.89282735182718L229.1288020833333,34.908347754808744L229.28858506944445,35.201273676923705L229.44836805555556,35.204177667692676L229.60815104166667,35.11284614388484L229.76793402777778,35.091287914696295L229.92771701388887,34.970653157471645L230.40706597222223,34.94946295818491L230.56684895833334,34.967405060442786L230.72663194444442,34.941530776650296L231.04619791666667,34.950824532884724L231.20598090277778,34.9507706455872L231.36576388888886,35.21343113735233L231.525546875,35.537230857892155L231.68532986111111,35.64065143259137L232.16467881944442,35.63400774657404L232.32446180555556,35.64236629439122L232.48424479166667,35.610106149831864L232.64402777777778,35.68290155235405L232.8038107638889,35.70589477756627L232.96359375,35.723318102454726L233.1233767361111,35.766709461232466L233.44294270833333,35.676401878662546L233.60272569444444,35.675402425274456L233.76250868055556,35.65264368153939L233.92229166666667,35.65117530147171L234.08207465277778,35.6177184020369L234.2418576388889,35.631329541635296L234.5614236111111,35.54365086500522L235.04077256944444,35.472457960972775L235.20055555555558,35.44001774533368L235.52012152777777,34.76238805104637L236.15925347222222,34.8291575902432L236.31903645833333,34.91442664549206L236.63860243055558,34.96558807864139L236.79838541666666,35.01106042305622L237.277734375,35.02356834517988L237.59730034722222,35.2039246609541L237.75708333333333,35.10604620282248L237.91686631944444,35.01851191922205L238.2364322916667,34.9456023438409L238.39621527777777,34.884571442362244L238.55599826388888,34.755830497816675L238.71578125,34.64937983414674L239.03534722222224,34.66030097741111L239.19513020833332,34.65234825941093L239.35491319444444,34.65764855619494L239.51469618055555,34.67574549170223L239.67447916666669,34.981934674829034L239.99404513888888,34.80664878566668L240.153828125,34.74469014279421L240.31361111111113,34.64834653759962L240.63317708333332,34.62739182899756L240.79296006944443,34.63381190028315L241.2723090277778,34.69568555888986L241.591875,34.748673871015995L241.7516579861111,35.078876798571144L242.07122395833335,35.50303521375807L242.23100694444443,35.64783600205291L242.39078993055554,35.67421842815483L242.55057291666668,35.64971446753742L242.7103559027778,35.59290860840707L242.87013888888887,35.55051492165481L243.02992187499999,35.50531712231381L243.50927083333335,35.37109280024376L243.66905381944443,35.278088795005004L243.82883680555554,35.10400772411839L243.98861979166668,34.760226148894134L244.1484027777778,34.651464598403464L244.3081857638889,34.64160742490748L244.46796874999998,34.621067219367575L244.78753472222223,34.55783914190448L244.94731770833334,34.5039924725225L245.10710069444445,34.48147385265412L245.26688368055554,34.490416763515555L245.42666666666668,34.48877288056275L245.5864496527778,34.506318232732184L246.0657986111111,34.43485313915855L246.38536458333334,34.308872370273974L246.54514756944445,34.25655238851053L246.70493055555553,34.23845667349096L246.86471354166665,34.26369031832232L247.02449652777779,34.29093842476743L247.1842795138889,34.341820205363746L247.3440625,34.3507802241798L247.5038454861111,34.374771019123244L247.66362847222223,34.39248956459895L247.82341145833334,34.40336999702262L248.30276041666664,35.00465721455973L248.46254340277778,35.42858684676469L248.94189236111112,35.52101678372736L249.10167534722223,35.51568999812105L249.42124131944445,35.52579020079571L249.58102430555556,35.53547771216162L249.74080729166664,35.54542037410437L250.0603732638889,35.37077686388571L250.22015625,35.19286125054293L250.3799392361111,35.16367486612356L250.69950520833333,35.09652222736645L250.85928819444445,34.944097348025934L251.01907118055556,34.825734085836274L251.33863715277778,34.751338043899636L251.4984201388889,34.70419074701283L251.658203125,34.65813522269687L251.97776909722222,34.58563113831312L252.13755208333333,34.542274115680215L252.29733506944444,34.483019217004255L252.61690104166667,34.47073475736602L252.7766840277778,34.56906946018887L253.09625,34.75077411582936L253.2560329861111,34.8707206293534L253.41581597222222,34.955615008884564L253.57559895833336,34.95440115677306L253.73538194444444,34.92913706481954L253.89516493055555,34.879125751324125L254.21473090277777,34.90451872002524L254.37451388888888,34.61394019836129L254.85386284722222,34.70817782093985L255.17342881944444,34.68228349544853L255.65277777777777,34.60824329438452L256.2919097222222,34.36969357278454L257.09082465277777,34.253156287901504L257.5701736111111,34.23198553675081L257.7299565972222,34.18116848551202L257.8897395833333,34.144877755219454L258.04952256944443,34.13599654777562L258.20930555555555,34.14164140447667L258.6886545138889,34.35565791960909L258.8484375,34.61703056907314L259.1680034722222,34.68964303814613L259.3277864583333,34.70345179625758L259.64735243055554,34.65137612207545L259.80713541666665,34.629587692476036L259.96691840277776,34.5819443222164L260.1267013888889,34.542276686666696L260.4462673611111,34.22374341584617L260.6060503472222,34.09245668652693L260.7658333333333,34.077951358483176L260.92561631944443,34.021601794657215L261.08539930555554,34.046960475832805L261.40496527777776,34.078509326177254L261.56474826388893,34.086755911211156L261.72453125,34.05828035336731L262.0440972222222,34.077186370448885L262.3636631944445,34.099819348373615L262.52344618055554,33.665750984024186L262.84301215277776,33.533839229424444L263.3223611111111,33.67186603765467L263.6419270833333,33.734737711535104L264.28105902777776,33.853347767959235L264.44084201388887,33.92194595889001L264.60062500000004,33.74517478687247L264.7604079861111,34.09783353798889L265.2397569444445,34.31607692567795L265.55932291666664,34.38433933637131L266.03867187500003,34.33906213547664L266.19845486111114,34.31697332958828L266.6778038194444,34.60711608909912L266.8375868055556,34.442146756824854L267.31693576388886,34.331198510825715L267.47671875000003,34.24778900113935L267.9560677083333,34.16523806038913L268.1158506944444,34.06400161027193L268.2756336805556,34.012928624478974L268.4354166666667,33.98480281489921L268.59519965277775,33.97685660818533L268.75498263888886,34.070639205295805L268.91476562500003,33.85433514577366L269.23433159722225,33.89408020405074L269.3941145833333,33.8959883868535L269.5538975694444,33.86477764467972L269.7136805555556,33.830540264692445L269.8734635416667,33.793377494152026L270.03324652777775,33.77883737671206L270.19302951388886,33.8175352986234L270.35281249999997,33.866257967410206L270.51259548611114,33.89015228363874L271.1517274305556,34.102827731173335L271.63107638888886,34.128492128675475L271.79085937499997,34.11033429557216L271.95064236111114,34.154049886237544L272.11042534722225,34.169567429864514L272.4299913194444,34.2491196787345L272.5897743055556,34.33039503440418L272.7495572916667,34.37156059617584L272.9093402777778,35.27808960289781L273.06912326388886,35.343341141546375L273.22890624999997,35.40908461281245L273.38868923611113,35.431910353023994L273.54847222222224,35.403722533929795L273.70825520833336,35.3588876669925L274.1876041666667,35.267720037282345L274.5071701388889,35.20294753187213L274.66695312499996,35.13870061046944L275.30608506944446,34.73671958221465L275.4658680555555,34.45675155101151L275.6256510416667,34.25220597868383L275.9452170138889,34.13327638355946L276.105,34.08305139203469L276.58434895833335,34.01589873917965L277.0636979166667,34.05417566177701L277.3832638888889,33.94861255132554L278.02239583333335,33.84475013483677L278.18217881944446,33.83514410133475L278.34196180555557,33.81866867046131L278.5017447916667,33.826808173430635L278.98109375,33.85373875960224" style="fill: none;" fill="none"></path></g></g></g></g><g opacity="0.2"><g><g><g><path stroke="rgb(255, 112, 67)" stroke-width="2px" d="M32.435946180555554,139.67569673978366L32.755512152777776,137.58430450146014L32.91529513888889,134.9970703125L33.23486111111111,127.28892420255221L33.55442708333334,126.0915895315317L33.71421006944445,125.0165546123798L33.87399305555555,124.59710650810828L34.03377604166667,104.61508413461539L34.19355902777778,108.00563401442308L34.35334201388889,116.16068036006047L34.513125,118.05263108473558L34.67290798611111,120.46424278846153L34.832690972222224,122.681396484375L34.992473958333335,125.1720742739164L35.152256944444446,126.39188795823317L35.47182291666667,127.50461989182692L35.79138888888889,127.70905010516827L35.951171875,127.5788764660175L36.750086805555554,91.51160606971153L36.909869791666665,92.19968825120192L37.069652777777776,93.89733678377591L37.22943576388889,94.71767014723558L37.38921875,94.17012334970327L37.70878472222223,92.88112229567308L38.18813368055555,81.21364182692307L38.34791666666666,79.28568209134616L38.66748263888889,76.69290865384616L38.827265625,75.90842848557693L38.98704861111111,74.37714438805213L39.14683159722222,73.09342029278095L39.466397569444446,71.87300931490384L39.78596354166667,70.83952525212216L39.94574652777778,70.59877959031324L40.42509548611111,63.69580078125L40.58487847222222,63.429875300480774L40.74466145833333,63.56283804086539L40.904444444444444,62.95785757211539L41.064227430555555,62.73735756507287L41.54357638888889,62.32554702758789L41.703359375,62.080303485576934L42.02292534722222,61.7290637089656L42.34249131944445,59.74015925480769L42.50227430555556,59.19168795072116L42.66205729166667,58.60997596153847L42.821840277777774,58.22770808293269L42.981623263888885,58.03823617788461L43.301189236111114,57.940415074275094L43.460972222222225,58.11967585637019L43.620755208333335,57.878680889423066L43.780538194444446,57.95181039663461L44.10010416666666,57.82328321016752L44.41967013888889,53.69035456730769L44.579453125,54.27206655649039L44.89901909722222,54.37178861177884L45.05880208333333,54.594501201923066L45.378368055555555,54.59260025024413L45.538151041666666,54.55876746544472L45.69793402777778,54.69496078491211L45.85771701388889,54.65433443509616L46.0175,54.66642573429989L46.177282986111116,54.60724692711463L46.49684895833333,53.35794771634616L46.65663194444444,53.22498497596153L46.81641493055555,52.99230018028847L46.97619791666666,52.97567983774039L47.77511284722222,52.65250766460713L48.25446180555556,52.31363965548002L48.57402777777778,52.42720853365384L48.73381076388889,51.47984900841347L48.89359375,51.23054387019231L50.012074652777784,50.59232271634616L50.49142361111111,50.474951934814456L50.81098958333333,49.58512995793269L50.97077256944444,49.435546875L51.13055555555556,49.24441293569711L51.769687499999996,49.36906550480769L51.92947048611111,49.20656010554386L52.089253472222225,49.07654747596153L52.249036458333336,49.012486443152795L52.56860243055556,48.95820024930515L52.72838541666666,49.601750300480774L53.207734375,48.68763146033655L53.687083333333334,48.457325451190655L53.846866319444445,48.355224609375L54.166432291666666,48.10591947115384L54.48599826388889,48.04497475257287L54.64578125,48.051415135310265L54.80556423611111,46.676570012019226L54.96534722222223,47.075458233173066L55.12513020833334,47.21950466449442L55.28491319444444,47.35800405649039L55.604479166666664,47.540827824519226L55.764262152777775,47.46010489830604L55.92404513888889,47.6447049654447L56.403394097222225,47.59219507070688L56.56317708333333,47.629466188870936L56.72296006944444,47.5912186255822L57.04252604166667,46.94249549278845L57.20230902777778,47.51867083035984L57.36209201388889,47.46603628305289L57.681657986111105,47.20288432194636L57.841440972222216,47.3461308992826L58.161006944444445,47.352467404879064L58.320789930555556,47.04886568509616L58.64035590277778,46.97850969754734L58.800138888888895,46.962180210993836L58.959921875,46.37740384615384L59.27948784722222,46.765208376370936L59.91861979166667,46.03075543917143L60.07840277777778,45.97020545372595L60.238185763888886,45.9415769136869L60.39796875,45.951923076923066L60.71753472222222,45.975742105337275L60.87731770833334,45.96826295119067L61.19688368055556,45.66272911658655L61.51644965277777,45.97020545372595L61.676232638888884,45.73918269230771L61.836015625,45.806775547907904L61.99579861111111,45.64610877403845L62.315364583333334,45.52791736309345L62.475147569444445,45.62284029447116L63.59362847222222,45.29708158052884L64.23276041666666,45.172429011418274L64.87189236111111,45.28877140925479L65.03167534722222,45.30927675687349L65.19145833333333,45.08101712740384L65.83059027777777,44.54251802884616L65.99037326388888,44.621184187669L66.15015625000001,44.45419129591721L66.30993923611112,44.31648137019229L66.78928819444444,44.21978213970476L66.94907118055555,44.22506948617789L67.10885416666667,44.23366012573243L67.26863715277779,45.67934945913461L67.4284201388889,44.00069486177884L67.58820312499999,44.083796574519226L67.90776909722221,43.964130108173066L68.06755208333334,43.707065347524775L68.22733506944445,43.77038885263295L68.54690104166667,43.95453186035155L68.70668402777778,44.017315204326934L68.86646701388888,43.96292513333833L69.02625,43.91481962937576L69.18603298611112,43.928676839975225L69.34581597222223,44.61564753605771L69.82516493055556,43.96745417668271L69.98494791666667,44.20346304086539L70.30451388888889,44.13127881563628L70.94364583333333,43.95990230853741L71.10342881944445,43.878815812331L71.42299479166667,43.91759314903845L71.58277777777778,43.48546424278845L71.74256076388889,43.40789918165942L71.90234375,43.30264047475961L72.06212673611111,43.14640925480771L72.22190972222222,43.14752074021558L72.70125868055555,43.31926081730771L73.18060763888889,43.20569193913386L73.340390625,43.22612457275392L73.50017361111111,43.585186298076934L73.65995659722222,43.551945612980774L73.97952256944446,43.50208458533655L74.61865451388888,43.281865046574524L74.9382204861111,42.960261418269226L75.25778645833333,43.09765971257136L75.41756944444445,43.070911348783056L75.57735243055555,42.255558894230774L75.73713541666666,42.039494441105774L75.89691840277779,42.366364640456L76.21648437500001,42.27550330528845L76.3762673611111,42.33312395535984L76.69583333333333,42.38852163461539L77.01539930555556,42.37854942908655L77.33496527777778,42.247248722956726L78.13388020833334,42.56303523137021L78.45344618055556,42.21123451819787L78.61322916666666,42.459750190147986L78.93279513888889,42.584267718975354L79.092578125,42.548076923076934L79.25236111111111,42.69373345008265L79.41214409722221,42.59073926485502L79.57192708333334,42.57530312171349L79.73171006944443,41.923152043269226L79.89149305555556,42.38852163461539L80.05127604166667,42.48824368990384L80.21105902777778,42.48824368990384L80.37084201388889,42.32868840144229L81.00997395833333,42.406990990271936L81.16975694444444,42.28215144230771L81.48932291666667,42.247248722956726L81.968671875,41.47440279447116L82.60780381944444,41.80127299382136L82.76758680555557,41.53375819279597L82.92736979166666,41.46609262319711L83.08715277777777,41.63506956834058L83.40671875,41.66931786170372L83.56650173611112,41.75694861778845L83.72628472222222,41.72571276151217L83.88606770833334,42.322040264423066L84.04585069444444,42.039494441105774L84.20563368055556,41.53534751305213L84.6849826388889,41.66831025343674L84.844765625,41.614491506723255L85.16433159722222,41.6941652738131L85.80346354166667,41.535087820199834L86.1230295138889,42.05611478365384L86.44259548611112,41.673846905048066L86.60237847222223,41.35806039663461L86.76216145833334,41.40792142427884L86.92194444444445,41.46252963726337L87.08172743055555,41.403766338641816L87.24151041666667,41.424541766826934L87.40129340277777,41.467754657451934L87.56107638888889,41.472896575927734L88.04042534722223,40.85945012019229L88.35999131944445,41.546420816274775L88.51977430555556,41.47440279447116L88.83934027777778,41.53534751305213L89.15890625,41.39961125300479L89.3186892361111,41.52056579589845L89.47847222222222,41.491023137019226L89.63825520833333,41.491023137019226L89.79803819444444,41.502106827956L89.95782118055556,41.51058320265551L90.11760416666667,42.355280949519226L90.27738715277778,42.18907752403845L90.596953125,42.12259615384616L90.75673611111111,42.082707331730774L91.07630208333333,41.666720933180585L91.23608506944444,41.599055363581726L91.55565104166668,41.60071739783655L91.87521701388889,41.52980047372671L92.035,41.54870611337515L92.19478298611111,40.959172175480774L92.35456597222223,41.25833834134616L92.51434895833333,41.00349655151368L92.83391493055555,40.99906099759616L92.99369791666666,40.94255183293271L93.31326388888888,40.9467069185697L93.47304687500001,41.02935157189003L93.6328298611111,41.015681340144226L93.79261284722223,41.01960789607122L93.95239583333333,41.01456985473632L94.27196180555556,42.18907752403845L94.43174479166666,41.457782451923066L94.59152777777778,41.24725465040942L94.75131076388888,41.133685772235566L95.55022569444444,40.60829596886268L95.71000868055556,40.646709735576934L96.18935763888888,40.69910536545973L96.349140625,40.29435847355771L96.66870659722223,40.438404904879064L96.82848958333334,40.29435847355771L97.14805555555556,40.405164219782904L98.26653645833333,40.57657189002404L98.42631944444445,41.29157902644229L98.90566840277778,40.69324669471155L99.06545138888889,40.646709735576934L99.225234375,40.70986703725961L99.38501736111111,40.78822156465969L99.70458333333333,40.67108970055213L100.02414930555557,40.499848233736486L100.34371527777779,40.454028026874255L100.66328125,40.64338566706729L100.98284722222222,40.56859412560095L101.46219618055557,40.403574899526745L102.101328125,40.239968402569104L102.26111111111112,40.22787710336539L102.42089409722222,40.241630436823925L102.58067708333334,42.22231820913461L102.90024305555555,41.24725465040942L103.06002604166667,40.90931114783655L103.53937499999999,40.18039486224836L103.69915798611112,40.236187274639434L104.01872395833334,40.13147911658655L104.49807291666667,40.091860375037555L104.977421875,40.01734930185171L105.13720486111112,40.410700871394226L105.29698784722223,40.53369140625L105.45677083333332,40.27773813100961L105.61655381944445,40.32759915865384L105.93611979166667,40.18725075354942L106.09590277777778,40.291034405048066L106.25568576388889,40.31550785945012L106.41546875,40.297131993220404L106.57525173611111,40.30153638399565L106.73503472222222,39.13093449519229L106.89481770833332,39.57968374399039L107.21438368055556,39.587993915264434L107.53394965277778,39.92317428588868L107.69373263888889,39.99519230769229L108.17308159722222,39.729266826923066L108.33286458333333,39.83201170701247L108.97199652777778,39.64616511418271L109.45134548611111,39.82234074519229L109.61112847222222,39.87331325824442L109.93069444444446,39.63785494290866L110.09047743055555,39.577834730881904L110.41004340277777,39.696026141826934L110.729609375,39.7024665245643L111.20895833333333,39.651701765794L111.36874131944445,39.67940579927884L112.3274392361111,40.25446965144229L112.80678819444445,40.089138793945324L112.96657118055556,39.762507512019226L113.12635416666666,39.62954477163461L113.28613715277778,39.607387777475225L113.44592013888888,39.75419734074521L113.605703125,39.729266826923066L113.76548611111112,39.696026141826934L114.08505208333334,39.600459172175476L114.24483506944443,39.577834730881904L114.40461805555556,39.46666541466345L114.56440104166666,39.505650505652795L114.72418402777778,39.52982271634616L114.88396701388889,39.54452133178711L115.04375,39.13093449519229L115.68288194444443,39.74256310096155L115.84266493055556,39.912090594951934L116.80136284722222,39.72095665564905L117.12092881944444,40.72648737980771L117.28071180555555,39.89547025240384L117.44049479166667,40.10599805391752L117.60027777777779,39.84560922475961L117.76006076388889,39.755859375L117.91984375,39.696026141826934L118.07962673611111,39.591556901198175L118.23940972222222,39.62954477163461L118.39919270833333,39.559365375225354L118.55897569444444,39.50655423677884L118.71875868055557,39.3938371511606L118.87854166666666,39.46334134615384L119.03832465277777,39.49005854679987L119.19810763888889,39.064453125L119.357890625,39.21403620793271L119.51767361111112,39.574147092379064L119.67745659722222,39.41348031850961L119.99702256944444,39.59630408653845L120.15680555555556,39.32563142042895L120.31658854166666,39.243121807391816L120.6361545138889,39.12761042668271L120.95572048611112,39.122624323918274L121.27528645833334,39.39685997596155L121.43506944444444,39.513202373798066L121.91441840277777,38.65226862980771L122.0742013888889,38.787443953294L122.23398437499999,38.76528695913461L122.55355034722223,38.61385486309345L122.71333333333334,38.605731670673066L122.87311631944445,38.608152008056635L123.19268229166667,38.662251223050646L123.51224826388889,38.416259765625L123.67203125,38.32207436194787L123.99159722222223,38.712101862980774L124.15138020833332,38.62678756713868L124.31116319444445,38.523107792780934L124.47094618055556,38.51182673527646L124.63072916666667,38.47350645798903L124.79051215277778,38.539250300480774L124.95029513888889,38.64441551795372L125.110078125,38.64063439002405L125.2698611111111,38.68131267841045L125.58942708333333,39.18079552283655L125.74921006944444,39.230656550480774L125.90899305555556,38.9564208984375L126.3883420138889,38.95998388437124L126.548125,38.8940946138822L126.70790798611111,38.79482961801381L127.02747395833333,38.75924130953274L127.18725694444444,38.71265241182766L127.34703993055555,38.68131267841045L127.50682291666668,38.59908353365384L127.82638888888889,38.63232421875L128.1459548611111,38.778583233173066L128.30573784722222,38.72650962242713L128.46552083333333,38.63232421875L128.78508680555555,38.68033623328577L129.10465277777777,38.65045077984149L129.42421875,38.727600332406865L129.5840017361111,38.10047325721155L129.74378472222222,38.51598182091345L130.22313368055555,38.466120793269226L130.862265625,38.355315047044L131.0220486111111,38.46944486177884L131.18183159722224,38.429857283372144L131.34161458333332,38.474430964543274L131.50139756944444,38.45801837627704L131.82096354166666,39.49658203125L131.98074652777777,39.19741586538461L132.4600954861111,39.36361929086539L132.61987847222224,39.330378605769226L132.93944444444443,39.219572859544L133.25901041666665,39.10978510929988L133.4187934027778,39.020128748967096L133.8981423611111,38.71542593149039L134.37749131944443,39.04450871394229L134.53727430555557,38.98135141225961L134.8568402777778,38.88993952824521L135.01662326388887,38.87978034386268L135.17640624999999,38.831768329326934L135.33618923611112,38.89220404991735L135.4959722222222,38.87609270535984L135.65575520833335,38.85558735774114L135.81553819444443,38.63232421875L135.97532118055557,38.08385291466345L136.13510416666668,37.95642682589016L136.77423611111112,38.209689683180585L136.9340190972222,38.366398737980774L137.25358506944445,38.40628756009616L137.57315104166668,38.2472828204815L137.73293402777776,38.289186859130865L137.8927170138889,38.2001953125L138.0525,38.01737154447116L138.21228298611112,38.21127900343674L138.37206597222223,38.05061222956729L138.53184895833334,38.2001953125L138.69163194444445,38.150334284855774L138.85141493055553,38.052991016094495L139.17098090277779,38.15218329796423L139.3307638888889,38.107121394230774L139.490546875,38.04608318622297L139.65032986111112,37.98966751098632L139.81011284722223,37.992368316650385L140.12967881944445,38.33315805288461L140.28946180555556,38.122630251370936L140.44924479166667,38.02568171574521L140.7688107638889,38.03952853863058L140.92859375,38.06723257211539L141.08837673611112,37.99659611628604L141.24815972222223,37.95273918738732L141.40794270833334,38.03731595552884L141.56772569444445,38.079323871319104L141.72750868055556,38.0921630859375L141.88729166666667,38.071335719181945L142.04707465277778,37.568622295673066L142.5264236111111,38.27498685396634L142.84598958333333,37.91764948918271L143.16555555555556,37.85532320462741L143.6449045138889,37.840593426044165L143.8046875,37.85394163865308L143.9644704861111,37.86710287240834L144.12425347222222,37.535381610576934L144.28403645833333,37.568622295673066L144.44381944444444,38.14479763324442L144.60360243055555,38.26667668269229L144.76338541666667,37.99410306490384L144.9231684027778,38.11155694814829L145.0829513888889,38.11471481323241L145.242734375,38.10047325721155L145.4025173611111,37.985979872483455L145.56230034722222,38.07388070913461L146.04164930555555,38.079510850172795L146.20143229166666,37.601862980769226L146.68078125,38.05892240084134L146.8405642361111,38.39299128605771L147.16013020833336,38.12421957162712L147.31991319444444,38.042302058293274L147.47969618055555,37.97120854304387L147.63947916666666,38.04064002403845L147.79926215277777,38.030969062218304L147.9590451388889,38.00628785353442L148.43839409722221,38.416259765625L148.59817708333335,38.16695462740384L148.75796006944447,38.34977839543271L149.3970920138889,38.378863994891816L149.556875,38.29991736778845L149.8764409722222,38.287826068584735L150.03622395833332,38.31376419067382L150.19600694444446,38.26467185387244L150.35578993055555,37.535381610576934L150.67535590277777,37.812390782282904L151.1547048611111,37.62401997492864L151.3144878472222,37.73007853581353L151.63405381944446,37.59077928983248L151.79383680555557,37.64175180288461L151.95361979166665,37.55653099646935L152.11340277777776,37.51876126802884L152.2731857638889,37.51038877047026L152.43296875000001,37.535381610576934L152.59275173611113,37.751446063701934L152.7525347222222,37.51322461641752L153.23188368055557,37.28053982074442L153.39166666666665,37.35017905602089L153.7112326388889,37.28422745924729L154.03079861111112,37.230169795109674L154.1905815972222,37.352557842548066L154.35036458333332,37.36061870868389L154.51014756944446,38.33315805288461L154.82971354166668,37.62401997492864L154.98949652777776,37.643413837139434L155.14927951388887,37.688288762019226L155.3090625,37.58524263822116L155.46884548611112,37.56387511033279L155.62862847222223,37.67249943659854L155.78841145833331,37.49475526076097L155.94819444444445,37.631779597355774L156.42754340277776,37.769074014516974L156.58732638888887,37.36917818509616L157.06667534722223,37.61848332331729L157.2264583333333,37.90102914663461L157.38624131944445,37.69604838444636L157.70580729166667,37.664189265324524L158.02537326388887,37.82457557091345L158.18515625,37.73784854595476L158.34493923611112,37.751446063701934L158.50472222222223,37.73912623478816L158.66450520833334,38.63232421875L158.82428819444442,38.831768329326934L158.98407118055556,38.18911162156326L159.14385416666667,38.258366511418274L159.46342013888886,38.26667668269229L159.623203125,38.26667668269229L159.78298611111111,38.36224365234375L160.10255208333334,38.11709359975961L160.58190104166667,37.96514211801383L160.74168402777778,36.671123798076934L160.9014670138889,37.26945612980771L161.06125,37.35809449415942L161.2210329861111,37.41072904146634L161.54059895833333,37.43565955528845L161.70038194444444,37.54487598125752L161.86016493055556,37.3982637845553L162.17973090277778,37.372502253605774L162.3395138888889,37.423568256084735L162.6590798611111,37.40418478158804L163.13842881944444,37.59077928983248L163.45799479166666,37.342585637019226L163.61777777777777,37.45227989783655L163.77756076388889,37.49739374014047L164.25690972222222,37.472224308894226L164.41669270833333,37.487026801476105L164.73625868055558,37.553954843374385L164.89604166666666,36.90380859375L165.21560763888888,36.83732722355771L165.375390625,37.05339167668271L165.53517361111113,37.08995643028845L165.85473958333333,37.122251833402174L166.01452256944444,37.10740778996396L166.49387152777777,37.24226109431342L166.65365451388888,37.25560930692234L166.97322048611113,36.87056790865384L167.13300347222224,37.05339167668271L167.29278645833332,37.169734074519226L167.45256944444444,37.45227989783655L167.77213541666669,37.319317157451934L167.93191840277777,37.312191185584425L168.09170138888888,37.2279052734375L168.251484375,37.23251741849458L168.57105034722224,37.09720705472506L168.89061631944443,37.120984532282904L169.21018229166668,36.82070688100961L169.3699652777778,36.626799422044L169.52974826388888,36.69605431189905L169.68953125,36.478327824519226L169.8493142361111,36.737605168269226L170.48844618055554,36.843975360576934L170.64822916666668,36.879636383056635L170.8080121527778,36.89549842247595L170.96779513888887,36.892247067965L171.44714409722224,37.59077928983248L171.60692708333335,37.61848332331729L171.76671006944443,37.44230769230771L171.92649305555554,37.34147415161132L172.08627604166668,37.188733203594495L172.4058420138889,37.136493389423066L172.56562499999998,37.06668795072116L172.7254079861111,37.039794158935536L172.88519097222223,37.089405881441564L173.20475694444445,37.502140925480774L173.52432291666668,37.291613123967096L173.6841059027778,37.37748835637021L173.8438888888889,37.20297475961539L174.003671875,37.19189106867864L174.1634548611111,37.13174620408279L174.48302083333334,37.17711973923903L174.64280381944445,37.08995643028845L174.80258680555553,37.03374850933369L175.12215277777779,37.00389421903171L175.2819357638889,35.50769981971155L175.6015017361111,36.41628200824442L175.76128472222223,36.60464242788461L176.40041666666664,36.77084585336539L176.56019965277778,36.789315209021936L176.879765625,36.82221309955304L177.03954861111112,36.793002847524775L177.19933159722223,36.77515675471378L177.35911458333334,36.83732722355771L177.51889756944445,36.272235576923066L177.67868055555556,36.13927283653845L177.83846354166664,36.57140174278845L178.1580295138889,36.516004063532904L178.3178125,36.52866668701171L178.4775954861111,36.44259408804086L178.95694444444445,36.42634770320012L179.11672743055556,36.51323054387021L179.27651041666667,36.532800997220534L179.43629340277778,37.967510516826934L179.755859375,37.12540969848632L180.71455729166667,36.737605168269226L180.8743402777778,36.75090144230771L181.0341232638889,36.716455782376784L181.3536892361111,36.832341120793274L181.99282118055555,36.61295259915866L182.47217013888888,36.50492037259616L182.95151909722222,36.64120718149039L183.43086805555555,36.57364548903246L183.59065104166666,36.03955078125L183.9102170138889,36.637883112980774L184.07,36.82070688100961L184.2297829861111,36.757549579326934L184.38956597222221,36.826243532620936L184.70913194444447,36.737605168269226L184.86891493055555,36.671123798076934L185.02869791666666,36.63123497596155L185.18848090277777,36.704364483173066L185.3482638888889,36.66835027841421L185.508046875,36.66623118473933L185.6678298611111,37.00353064903845L185.8276128472222,36.75422551081729L185.98739583333332,36.826243532620936L186.30696180555555,36.45838341346155L186.46674479166666,36.53816105769229L186.7863107638889,36.5340059720553L187.1058767361111,36.4716796875L187.2656597222222,36.350808246319104L187.58522569444446,36.268662203275255L187.90479166666665,36.72098482572116L188.06457465277776,36.671123798076934L188.2243576388889,36.77084585336539L188.38414062500001,36.498272235576934L188.86348958333332,36.704364483173066L189.02327256944446,36.704364483173066L189.18305555555557,36.65782752403845L189.34283854166665,36.69529600877027L189.6624045138889,36.625386692927435L189.8221875,36.272235576923066L190.1417534722222,36.34980063805213L190.30153645833332,36.08110163762021L191.10045138888887,36.150356527475225L191.260234375,36.142596905048066L191.57980034722223,36.211290858342096L191.73958333333331,36.20058112511268L192.05914930555556,36.77084585336539L192.21893229166668,36.4716796875L192.37871527777776,36.21406437800479L192.53849826388887,36.25893930288461L192.85806423611112,36.31497063269981L193.01784722222223,36.29716609074521L193.1776302083333,36.16512785691481L193.49719618055556,36.093940852238575L193.65697916666667,36.10880567110502L193.81676215277778,36.08621239295374L193.97654513888887,35.97306941105771L194.45589409722223,36.022930438701934L194.77546006944442,35.81794967651368L195.574375,35.997241621751044L195.73415798611111,36.04508743286132L195.89394097222223,36.05081106332631L196.05372395833334,36.00631009615384L196.37328993055556,36.150356527475225L196.69285590277778,35.979717548076934L196.8526388888889,35.961985720120936L197.012421875,36.03480359590969L197.33198784722222,35.998924431434034L197.49177083333333,36.012958233173066L197.65155381944444,36.05164208045372L197.81133680555556,36.042324300912725L197.97111979166667,36.056264613224926L198.45046875,35.74038461538461L198.6102517361111,35.90658804086539L198.77003472222222,35.82016225961539L199.56894965277777,35.63069035456729L199.72873263888889,35.68297171959509L199.888515625,35.7763988201435L200.04829861111114,35.77578594501202L200.36786458333333,35.70714393028845L200.52764756944444,35.341496394230774L200.68743055555558,35.449528620793274L200.84721354166666,35.341496394230774L201.00699652777777,35.546477156419L201.80591145833333,35.468413485013514L201.96569444444444,35.452302140456L202.12547743055555,35.459905947171706L202.2852604166667,36.40519831730771L202.44504340277777,36.15589317908655L202.60482638888888,35.93982872596155L202.92439236111113,36.15921724759616L203.24395833333332,36.205754206730774L203.40374131944444,36.22237454927884L203.56352430555555,36.194670515794L203.72330729166669,36.119328425480774L203.88309027777777,36.127181537334735L204.04287326388888,36.12542601365308L204.20265625,36.118892141488885L204.52222222222224,36.255615234375L204.68200520833332,35.70714393028845L204.84178819444443,35.657282902644226L205.00157118055554,35.82681039663461L205.16135416666668,35.712680581899775L205.3211371527778,35.806865985576934L205.48092013888888,35.93982872596155L206.12005208333335,36.09494846050558L206.43961805555554,36.33871694711539L206.59940104166668,36.056171123798066L207.07874999999999,36.119328425480774L207.39831597222224,36.10603215144229L207.55809895833335,36.06032620943509L207.87766493055554,35.94315279447116L208.1972309027778,35.948138897235566L208.3570138888889,35.95823575533353L208.51679687499998,37.103252704326934L208.83636284722223,35.95091241689829L209.31571180555554,35.94536537757287L209.47549479166668,36.015804466834425L209.95484375,36.099384014423066L210.27440972222223,36.103258631779596L210.75375868055553,36.32209660456729L211.2331076388889,35.98636568509616L211.392890625,35.884431046706L211.5526736111111,35.96357504037712L211.71245659722223,35.96475923978366L211.87223958333334,35.93982872596155L212.03202256944445,36.032902644230774L212.19180555555556,35.95795528705304L212.35158854166664,35.826259847787725L212.51137152777778,35.80573372474083L212.6711545138889,36.03955078125L212.99072048611112,35.31933940007136L213.15050347222223,35.333186222956726L213.31028645833334,35.36808894230771L213.78963541666664,35.341496394230774L213.94941840277778,35.452302140456L214.268984375,35.41704623882589L214.4287673611111,35.468922483004064L214.5885503472222,35.478967402531566L214.74833333333333,35.773625300480774L215.06789930555556,35.81794967651368L215.5472482638889,35.563097498967096L215.70703125,35.50769981971155L215.8668142361111,35.320720966045684L216.02659722222222,35.31195373535155L216.18638020833333,35.311579777644226L216.34616319444444,35.23572868934045L216.50594618055555,35.2223804767315L216.66572916666667,35.22572532066931L216.8255121527778,34.84288611778845L216.9852951388889,34.92598783052884L217.145078125,34.98693254910984L217.3048611111111,35.233464167668274L217.46464409722222,35.16199669471155L217.62442708333336,35.20853365384616L217.94399305555555,35.266704852764434L218.10377604166666,35.171594942533034L218.26355902777777,35.158672626201934L218.42334201388888,35.20248800424429L220.021171875,34.98415902944711L220.50052083333335,35.24177433894229L220.66030381944447,35.286098714975225L220.82008680555555,35.26384823138898L220.97986979166666,35.10881159855771L221.2994357638889,35.441218449519226L221.45921875,35.16698279747595L221.6190017361111,35.288311298076934L221.7787847222222,35.441218449519226L221.93856770833332,35.41272494976337L222.25813368055555,35.42274909386268L222.41791666666666,35.398005558894226L222.57769965277777,35.41704623882589L222.7374826388889,35.32210253201998L222.89726562500002,35.34281563392054L223.0570486111111,34.942608173076934L223.2168315972222,35.75700495793271L223.37661458333332,35.51878351064829L223.53639756944446,35.63235238882211L223.85596354166665,35.330412703294L224.1755295138889,35.31656588040866L224.33531250000001,35.31933940007136L224.6548784722222,35.314301358736486L224.97444444444446,35.2720129746657L225.29401041666665,35.49107947716345L225.45379340277776,35.529856813870936L225.6135763888889,35.17529296875L225.773359375,35.17529296875L225.93314236111112,35.114348250169L226.0929253472222,35.13730509831353L226.73205729166668,35.45028692392202L227.05162326388887,35.42722619863656L227.53097222222223,35.219617344782904L227.69075520833331,34.87612680288461L228.01032118055556,34.80964543269229L228.17010416666668,34.804898247352014L228.32988715277776,34.83042086087741L228.80923611111112,34.85800024179312L228.96901909722223,34.92045117891752L229.1288020833333,34.93162835928109L229.28858506944445,35.64066256009616L229.44836805555556,35.20853365384616L229.60815104166667,34.975848858173066L229.76793402777778,35.05895057091345L229.92771701388887,34.78970102163461L230.40706597222223,34.91767765925479L230.56684895833334,34.994318213829615L230.72663194444442,34.90271935096155L231.04619791666667,34.96476516723632L231.20598090277778,34.950689814640924L231.36576388888886,35.607421875L231.525546875,36.022930438701934L231.68532986111111,35.79578229464016L232.16467881944442,35.624042217548066L232.32446180555556,35.65490411611705L232.48424479166667,35.5617159329928L232.64402777777778,35.79209465613732L232.8038107638889,35.74038461538461L232.96359375,35.74945308978741L233.1233767361111,35.83179649939905L233.44294270833333,35.54094050480771L233.60272569444444,35.67390324519229L233.76250868055556,35.61850556593674L233.92229166666667,35.64897273137021L234.08207465277778,35.56753305288461L234.2418576388889,35.651746251032904L234.5614236111111,35.41213285006009L235.04077256944444,35.36566860492411L235.20055555555558,35.391357421875L235.52012152777777,33.74594350961539L236.15925347222222,34.92931189903845L236.31903645833333,35.04233022836539L236.63860243055558,35.04233022836539L236.79838541666666,35.079268939678485L237.277734375,35.04233022836539L237.59730034722222,35.47445913461539L237.75708333333333,34.959228515625L237.91686631944444,34.88721049382136L238.2364322916667,34.836237980769226L238.39621527777777,34.793025090144226L238.55599826388888,34.56271908099836L238.71578125,34.489703838641816L239.03534722222224,34.67668269230771L239.19513020833332,34.6404191824106L239.35491319444444,34.665599001370936L239.51469618055555,34.70289089496319L239.67447916666669,35.441218449519226L239.99404513888888,34.543719951923066L240.153828125,34.651752178485566L240.31361111111113,34.50383112980771L240.63317708333332,34.595959766094495L240.79296006944443,34.64344200721155L241.2723090277778,34.78849604679988L241.591875,34.828156339205236L241.7516579861111,35.57418118990384L242.07122395833335,36.13927283653845L242.23100694444443,35.86503718449521L242.39078993055554,35.71379206730771L242.55057291666668,35.61295852661132L242.7103559027778,35.50769981971155L242.87013888888887,35.48692439152646L243.02992187499999,35.43752042330229L243.50927083333335,35.16975631713868L243.66905381944443,35.13858278714693L243.82883680555554,34.84288611778845L243.98861979166668,34.24455378605771L244.1484027777778,34.48832227266752L244.3081857638889,34.62682166466345L244.46796874999998,34.59025691105771L244.78753472222223,34.46299702570988L244.94731770833334,34.423222468449524L245.10710069444445,34.44769592285155L245.26688368055554,34.50383112980771L245.42666666666668,34.48630705613357L245.5864496527778,34.53263626098632L246.0657986111111,34.327655498798066L246.38536458333334,34.11990121694711L246.54514756944445,34.17807241586539L246.70493055555553,34.21131310096155L246.86471354166665,34.301540785569415L247.02449652777779,34.33181058443509L247.1842795138889,34.41814287625826L247.3440625,34.36422025240384L247.5038454861111,34.41075721153845L247.66362847222223,34.4190673828125L247.82341145833334,34.41969064565805L248.30276041666664,35.90658804086539L248.46254340277778,36.06448129507211L248.94189236111112,35.65966168917143L249.10167534722223,35.50769981971155L249.42124131944445,35.54094050480771L249.58102430555556,35.550008979210475L249.74080729166664,35.5603343670185L250.0603732638889,35.10881159855771L250.22015625,34.92598783052884L250.3799392361111,35.11989528949442L250.69950520833333,34.995793269230774L250.85928819444445,34.71546002901516L251.01907118055556,34.648189192551825L251.33863715277778,34.63974398099458L251.4984201388889,34.63346980168271L251.658203125,34.58905193622297L251.97776909722222,34.47687501173752L252.13755208333333,34.477238581730774L252.29733506944444,34.39413686899039L252.61690104166667,34.45230806790866L252.7766840277778,34.716571514423066L253.09625,35.02333109929012L253.2560329861111,35.050640399639434L253.41581597222222,35.082956578181324L253.57559895833336,34.952580378605774L253.73538194444444,34.89124092688928L253.89516493055555,34.804108781081L254.21473090277777,34.942608173076934L254.37451388888888,34.17807241586539L254.85386284722222,34.84953425480771L255.17342881944444,34.64344200721155L255.65277777777777,34.49718299278845L256.2919097222222,34.01186899038461L257.09082465277777,34.078350360576934L257.5701736111111,34.200229410024775L257.7299565972222,34.10494290865384L257.8897395833333,34.09044165978065L258.04952256944443,34.12267473660984L258.20930555555555,34.15010868952825L258.6886545138889,34.67668269230771L258.8484375,35.009089543269226L259.1680034722222,34.79856174175558L259.3277864583333,34.72416493342473L259.64735243055554,34.57326261080229L259.80713541666665,34.596905048076934L259.96691840277776,34.510479266826934L260.1267013888889,34.482775233342096L260.4462673611111,33.74594350961539L260.6060503472222,33.895526592548066L260.7658333333333,34.05619336641752L260.92561631944443,33.937077448918274L261.08539930555554,34.08499849759616L261.40496527777776,34.12583260169396L261.56474826388893,34.099125788762024L261.72453125,34.01556701660155L262.0440972222222,34.10554539607122L262.3636631944445,34.13376881526065L262.52344618055554,33.0146484375L262.84301215277776,33.335971597524775L263.3223611111111,33.87890625L263.6419270833333,33.829045222355774L264.28105902777776,34.031262852595404L264.44084201388887,34.024843245286206L264.60062500000004,33.48001802884616L264.7604079861111,34.62682166466345L265.2397569444445,34.64344200721155L265.55932291666664,34.48673295241136L266.03867187500003,34.27114633413461L266.19845486111114,34.28384012075571L266.6778038194444,35.04233022836539L266.8375868055556,34.19469275841345L267.31693576388886,34.164776141826934L267.47671875000003,34.12267473660984L267.9560677083333,34.04141164926381L268.1158506944444,33.91214693509616L268.2756336805556,33.936319145789525L268.4354166666667,33.942614100529596L268.59519965277775,33.96493729811448L268.75498263888886,34.21131310096155L268.91476562500003,33.52987905649039L269.23433159722225,33.95369779146634L269.3941145833333,33.89885066105771L269.5538975694444,33.817961531419L269.7136805555556,33.77918419471155L269.8734635416667,33.73763333834134L270.03324652777775,33.75702720055213L270.19302951388886,33.87558218149039L270.35281249999997,33.93934197059045L270.51259548611114,33.9259937579815L271.1517274305556,34.421840902475225L271.63107638888886,34.16698872492864L271.79085937499997,34.08309754591721L271.95064236111114,34.219623272235566L272.11042534722225,34.19284374530497L272.4299913194444,34.368448052039525L272.5897743055556,34.45230806790866L272.7495572916667,34.43330893883339L272.9093402777778,36.637883112980774L273.06912326388886,35.441218449519226L273.22890624999997,35.50769981971155L273.38868923611113,35.46614896334134L273.54847222222224,35.36144080528845L273.70825520833336,35.29163536658655L274.1876041666667,35.130968592717096L274.5071701388889,35.10578877375676L274.66695312499996,35.04233022836539L275.30608506944446,34.13374803983248L275.4658680555555,34.036799504206726L275.6256510416667,33.94538762019229L275.9452170138889,33.95488199087288L276.105,34.00771390474759L276.58434895833335,33.91516975989708L277.0636979166667,34.111591045673066L277.3832638888889,33.79026788564829L278.02239583333335,33.68895651010365L278.18217881944446,33.820735051081726L278.34196180555557,33.79395552415113L278.5017447916667,33.83901742788461L278.98109375,33.89413463885967" style="fill: none;" fill="none"></path></g></g></g></g></g></g><g transform="translate(42, 177)" clip-path="url(#clip_1)"><clipPath id="clip_1"><rect width="287" height="23"></rect></clipPath><g><g><line x1="0" y1="0" x2="0" y2="5" style="visibility: inherit;" fill="rgb(0, 0, 0)" stroke="rgb(204, 204, 204)" stroke-width="1px"></line><line x1="31.95659722222222" y1="0" x2="31.95659722222222" y2="5" style="visibility: inherit;" fill="rgb(0, 0, 0)" stroke="rgb(204, 204, 204)" stroke-width="1px"></line><line x1="63.91319444444444" y1="0" x2="63.91319444444444" y2="5" style="visibility: inherit;" fill="rgb(0, 0, 0)" stroke="rgb(204, 204, 204)" stroke-width="1px"></line><line x1="95.86979166666666" y1="0" x2="95.86979166666666" y2="5" style="visibility: inherit;" fill="rgb(0, 0, 0)" stroke="rgb(204, 204, 204)" stroke-width="1px"></line><line x1="127.82638888888889" y1="0" x2="127.82638888888889" y2="5" style="visibility: inherit;" fill="rgb(0, 0, 0)" stroke="rgb(204, 204, 204)" stroke-width="1px"></line><line x1="159.78298611111111" y1="0" x2="159.78298611111111" y2="5" style="visibility: inherit;" fill="rgb(0, 0, 0)" stroke="rgb(204, 204, 204)" stroke-width="1px"></line><line x1="191.73958333333331" y1="0" x2="191.73958333333331" y2="5" style="visibility: inherit;" fill="rgb(0, 0, 0)" stroke="rgb(204, 204, 204)" stroke-width="1px"></line><line x1="223.69618055555557" y1="0" x2="223.69618055555557" y2="5" style="visibility: inherit;" fill="rgb(0, 0, 0)" stroke="rgb(204, 204, 204)" stroke-width="1px"></line><line x1="255.65277777777777" y1="0" x2="255.65277777777777" y2="5" style="visibility: inherit;" fill="rgb(0, 0, 0)" stroke="rgb(204, 204, 204)" stroke-width="1px"></line><line x1="287.609375" y1="0" x2="287.609375" y2="5" style="visibility: inherit;" fill="rgb(0, 0, 0)" stroke="rgb(204, 204, 204)" stroke-width="1px"></line></g><g transform="translate(0, 8)"><text x="0" y="0" dx="0em" dy="0.95em" style="text-anchor: middle; visibility: hidden; font-family: &quot;Helvetica Neue&quot;, sans-serif; font-size: 12px; font-weight: 200;" fill="rgb(50, 49, 63)" stroke="none" stroke-width="1px">-200</text><text x="31.95659722222222" y="0" dx="0em" dy="0.95em" style="text-anchor: middle; visibility: inherit; font-family: &quot;Helvetica Neue&quot;, sans-serif; font-size: 12px; font-weight: 200;" fill="rgb(50, 49, 63)" stroke="none" stroke-width="1px">0</text><text x="63.91319444444444" y="0" dx="0em" dy="0.95em" style="text-anchor: middle; visibility: inherit; font-family: &quot;Helvetica Neue&quot;, sans-serif; font-size: 12px; font-weight: 200;" fill="rgb(50, 49, 63)" stroke="none" stroke-width="1px">200</text><text x="95.86979166666666" y="0" dx="0em" dy="0.95em" style="text-anchor: middle; visibility: inherit; font-family: &quot;Helvetica Neue&quot;, sans-serif; font-size: 12px; font-weight: 200;" fill="rgb(50, 49, 63)" stroke="none" stroke-width="1px">400</text><text x="127.82638888888889" y="0" dx="0em" dy="0.95em" style="text-anchor: middle; visibility: inherit; font-family: &quot;Helvetica Neue&quot;, sans-serif; font-size: 12px; font-weight: 200;" fill="rgb(50, 49, 63)" stroke="none" stroke-width="1px">600</text><text x="159.78298611111111" y="0" dx="0em" dy="0.95em" style="text-anchor: middle; visibility: inherit; font-family: &quot;Helvetica Neue&quot;, sans-serif; font-size: 12px; font-weight: 200;" fill="rgb(50, 49, 63)" stroke="none" stroke-width="1px">800</text><text x="191.73958333333331" y="0" dx="0em" dy="0.95em" style="text-anchor: middle; visibility: inherit; font-family: &quot;Helvetica Neue&quot;, sans-serif; font-size: 12px; font-weight: 200;" fill="rgb(50, 49, 63)" stroke="none" stroke-width="1px">1k</text><text x="223.69618055555557" y="0" dx="0em" dy="0.95em" style="text-anchor: middle; visibility: inherit; font-family: &quot;Helvetica Neue&quot;, sans-serif; font-size: 12px; font-weight: 200;" fill="rgb(50, 49, 63)" stroke="none" stroke-width="1px">1.2k</text><text x="255.65277777777777" y="0" dx="0em" dy="0.95em" style="text-anchor: middle; visibility: inherit; font-family: &quot;Helvetica Neue&quot;, sans-serif; font-size: 12px; font-weight: 200;" fill="rgb(50, 49, 63)" stroke="none" stroke-width="1px">1.4k</text><text x="287.609375" y="0" dx="0em" dy="0.95em" style="text-anchor: middle; visibility: hidden; font-family: &quot;Helvetica Neue&quot;, sans-serif; font-size: 12px; font-weight: 200;" fill="rgb(50, 49, 63)" stroke="none" stroke-width="1px">1.6k</text></g><line x1="0" y1="0" x2="287.609375" y2="0" fill="rgb(0, 0, 0)" stroke="rgb(204, 204, 204)" stroke-width="1px"></line></g></g></g></g></svg>